<svg width="24" height="24" viewBox="0 0 24 24" fill="none" xmlns="http://www.w3.org/2000/svg">
<circle cx="12" cy="12" r="12" fill="#8499F0"/>
<path d="M18.0927 8.20513L17.0541 7.16302C17.0028 7.11137 16.9418 7.07037 16.8745 7.04239C16.8073 7.01441 16.7351 7 16.6623 7C16.5894 7 16.5173 7.01441 16.45 7.04239C16.3828 7.07037 16.3218 7.11137 16.2705 7.16302L9.74804 13.6116L6.98893 10.8383C6.88577 10.7354 6.74587 10.6776 6.6 10.6776C6.45412 10.6776 6.31422 10.7354 6.21106 10.8383L5.16099 11.8747C5.05784 11.9788 5 12.1193 5 12.2657C5 12.4121 5.05784 12.5526 5.16099 12.6567L9.35122 16.8695C9.4553 16.9723 9.59585 17.03 9.74231 17.03C9.88878 17.03 10.0293 16.9723 10.1334 16.8695L18.0927 8.98708C18.1444 8.93591 18.1855 8.87502 18.2136 8.80791C18.2416 8.7408 18.256 8.66882 18.256 8.59611C18.256 8.52341 18.2416 8.45142 18.2136 8.38431C18.1855 8.31721 18.1444 8.25631 18.0927 8.20513Z" fill="white"/>
</svg>
